<?xml version="1.0" encoding="UTF-8"?>
<!--
This file has been modified from the original version by the kanji_colorize.py
script (available at http://github.com/cayennes/kanji-colorize) with these
settings:
    mode: spectrum
    saturation: 0.95
    value: 0.75
    image_size: 327
It remains under a Creative Commons-Attribution-Share Alike 3.0 License.

The original SVG has the following copyright:

Copyright (C) 2009/2010/2011 Ulrich Apel.
This work is distributed under the conditions of the Creative Commons
Attribution-Share Alike 3.0 Licence. This means you are free:
* to Share - to copy, distribute and transmit the work
* to Remix - to adapt the work

Under the following conditions:
* Attribution. You must attribute the work by stating your use of KanjiVG in
  your own copyright header and linking to KanjiVG's website
  (http://kanjivg.tagaini.net)
* Share Alike. If you alter, transform, or build upon this work, you may
  distribute the resulting work only under the same or similar license to this
  one.

See http://creativecommons.org/licenses/by-sa/3.0/ for more details.
-->
<!DOCTYPE svg PUBLIC "-//W3C//DTD SVG 1.0//EN" "http://www.w3.org/TR/2001/REC-SVG-20010904/DTD/svg10.dtd" [
<!ATTLIST g
xmlns:kvg CDATA #FIXED "http://kanjivg.tagaini.net"
kvg:element CDATA #IMPLIED
kvg:variant CDATA #IMPLIED
kvg:partial CDATA #IMPLIED
kvg:original CDATA #IMPLIED
kvg:part CDATA #IMPLIED
kvg:number CDATA #IMPLIED
kvg:tradForm CDATA #IMPLIED
kvg:radicalForm CDATA #IMPLIED
kvg:position CDATA #IMPLIED
kvg:radical CDATA #IMPLIED
kvg:phon CDATA #IMPLIED >
<!ATTLIST path
xmlns:kvg CDATA #FIXED "http://kanjivg.tagaini.net"
kvg:type CDATA #IMPLIED >
]>
<svg xmlns="http://www.w3.org/2000/svg" width="327" height = "327" viewBox="0 0 327 327">
<g id="kvg:StrokePaths_07c60" style="fill:none;stroke:#000000;stroke-width:3;stroke-linecap:round;stroke-linejoin:round;" transform="scale(3.0,3.0)">
<g id="kvg:07c60" kvg:element="籠">
	<g id="kvg:07c60-g1" kvg:element="竹" kvg:variant="true" kvg:position="top" kvg:radical="general">
		<g id="kvg:07c60-g2" kvg:position="left">
			<path style="stroke: #bf0909;" id="kvg:07c60-s1" kvg:type="㇒" d="M31.99,9.75c0.04,0.46,0.1,1.2-0.09,1.87c-1.12,3.94-7.57,12.59-16.4,17.88"/>
			<path style="stroke: #bf3b09;" id="kvg:07c60-s2" kvg:type="㇐b" d="M28.73,20.29C32.72,20.29,45.52,17,50,17"/>
			<path style="stroke: #bf6c09;" id="kvg:07c60-s3" kvg:type="㇔/㇑" d="M36.02,21.83C38.83,23.45,43.3,28.48,44,31"/>
		</g>
		<g id="kvg:07c60-g3" kvg:position="right">
			<path style="stroke: #bf9e09;" id="kvg:07c60-s4" kvg:type="㇒" d="M64.97,9.25c0.04,0.42,0.17,1.09-0.08,1.68C63.06,15.32,57.98,21.6,51.25,27"/>
			<path style="stroke: #aebf09;" id="kvg:07c60-s5" kvg:type="㇐b" d="M61.98,17.68c4.58,0,21.37-3.2,26.52-3.2"/>
			<path style="stroke: #7dbf09;" id="kvg:07c60-s6" kvg:type="㇒/㇚" d="M81.48,17.5c0.03,0.21,0.07,0.55-0.06,0.85c-0.78,1.8-5.27,5.74-11.42,8.15"/>
		</g>
	</g>
	<g id="kvg:07c60-g4" kvg:element="龍" kvg:position="bottom">
		<g id="kvg:07c60-g5" kvg:position="left">
			<g id="kvg:07c60-g6" kvg:element="立" kvg:position="top">
				<g id="kvg:07c60-g7" kvg:element="亠" kvg:position="top">
					<path style="stroke: #4bbf09;" id="kvg:07c60-s7" kvg:type="㇑a" d="M32.38,27.75c0.16,0.47,0.4,1.53,0.4,2.73c0,1.66,0,2.61,0,5.23"/>
					<path style="stroke: #1abf09;" id="kvg:07c60-s8" kvg:type="㇐" d="M18.64,39.38c0.53,0.07,2.37,0.03,2.9,0c3.01-0.16,20.12-1.58,24.67-1.77c0.89-0.04,1.42,0,1.87,0.03"/>
				</g>
				<g id="kvg:07c60-g8" kvg:position="bottom">
					<path style="stroke: #09bf2a;" id="kvg:07c60-s9" kvg:type="㇔" d="M21.91,40.64c3.54,4.16,5.15,8.41,5.47,11.15"/>
					<path style="stroke: #09bf5c;" id="kvg:07c60-s10" kvg:type="㇒" d="M44.29,37.74c0.55,0.38,0.61,1.43,0.55,1.75c-0.44,2.16-4.99,8.61-6.08,10.27"/>
					<path style="stroke: #09bf8d;" id="kvg:07c60-s11" kvg:type="㇐" d="M13.49,54.17c0.72,0.41,1.57,0.48,2.3,0.46c8.71-0.26,25.88-2.64,35.13-3.09c1.22-0.06,1.94,0.25,2.55,0.46"/>
				</g>
			</g>
			<g id="kvg:07c60-g9" kvg:element="月" kvg:position="bottom">
				<path style="stroke: #09bfbf;" id="kvg:07c60-s12" kvg:type="㇒" d="M23.07,61c0.3,0.52,0.5,1.04,0.6,1.55c0.1,0.52,0.14,34.28,0.1,35.45"/>
				<path style="stroke: #098dbf;" id="kvg:07c60-s13" kvg:type="㇕" d="M25.27,62.94c1.6-0.13,16.24-2.24,17.43-2.38c2.13-0.25,2.93,1.63,2.66,2.38c-0.26,0.72-0.4,18.72-0.4,28.89c0,9.02-2.88,5.06-5.8,2.33"/>
				<path style="stroke: #095cbf;" id="kvg:07c60-s14" kvg:type="㇐" d="M24.02,71.64c6.05-0.38,15.92-0.74,21.23-0.93"/>
				<path style="stroke: #092abf;" id="kvg:07c60-s15" kvg:type="㇐" d="M24.78,82.15c4.38-0.43,13.98-1.34,19.05-1.85"/>
			</g>
		</g>
		<g id="kvg:07c60-g10" kvg:position="right">
			<path style="stroke: #1a09bf;" id="kvg:07c60-s16" kvg:type="㇐" d="M66.35,34.06c4.37-0.32,13.31-1.52,18.25-2.11c1.12-0.13,1.83,0.09,2.4,0.18"/>
			<path style="stroke: #4b09bf;" id="kvg:07c60-s17" kvg:type="㇅" d="M62.5,27.75c1.25,0.69,1.61,2.35,1.63,3.31c0.04,2.02-0.18,8.32-0.31,11.12c-0.03,0.6,0.25,1.35,2.53,1.06c5.02-0.62,12.34-1.43,17.87-2.25c3.13-0.47,3.22,0.52,2.73,1.56c-0.95,2.01-1.55,5.44-2.52,8.95"/>
			<path style="stroke: #7d09bf;" id="kvg:07c60-s18" kvg:type="㇐" d="M64,54.25c4.78-0.32,14.83-1.5,21.5-1.79"/>
			<path style="stroke: #ae09bf;" id="kvg:07c60-s19" kvg:type="㇟" d="M62.07,51.1c0.76,1.19,1.36,2.61,1.4,4.45c0.2,8.23-0.54,24.77-0.54,30.37c0,13.07,9.07,11.59,18,11.59c14.26,0,15.17-2.79,15.17-9.18"/>
			<path style="stroke: #bf099e;" id="kvg:07c60-s20" kvg:type="㇐" d="M64.75,62.88c4.71-0.29,15.35-1.11,20.68-1.65c1.21-0.12,1.97,0.08,2.59,0.17"/>
			<path style="stroke: #bf096c;" id="kvg:07c60-s21" kvg:type="㇐" d="M64.91,73.43c4.34-0.38,15.53-1.08,20.45-1.77c1.12-0.16,1.82,0.1,2.39,0.21"/>
			<path style="stroke: #bf093b;" id="kvg:07c60-s22" kvg:type="㇐" d="M64.49,84.25c4.33-0.17,16.84-0.64,21.74-0.95c1.12-0.07,1.81,0.05,2.38,0.09"/>
		</g>
	</g>
</g>
</g>
<g id="kvg:StrokeNumbers_07c60" style="font-size:8;fill:#808080" transform="scale(3.0,3.0)">
	<text style="fill: #bf0909;" transform="matrix(1 0 0 1 23.85 11.85)">1</text>
	<text style="fill: #bf3b09;" transform="matrix(1 0 0 1 33.30 16.98)">2</text>
	<text style="fill: #bf6c09;" transform="matrix(1 0 0 1 41.61 25.48)">3</text>
	<text style="fill: #bf9e09;" transform="matrix(1 0 0 1 55.50 10.50)">4</text>
	<text style="fill: #aebf09;" transform="matrix(1 0 0 1 66.61 15.09)">5</text>
	<text style="fill: #7dbf09;" transform="matrix(1 0 0 1 82.64 22.77)">6</text>
	<text style="fill: #4bbf09;" transform="matrix(1 0 0 1 24.43 33.50)">7</text>
	<text style="fill: #1abf09;" transform="matrix(1 0 0 1 11.79 41.88)">8</text>
	<text style="fill: #09bf2a;" transform="matrix(1 0 0 1 16.95 48.59)">9</text>
	<text style="fill: #09bf5c;" transform="matrix(1 0 0 1 30.32 45.93)">10</text>
	<text style="fill: #09bf8d;" transform="matrix(1 0 0 1 2.61 56.66)">11</text>
	<text style="fill: #09bfbf;" transform="matrix(1 0 0 1 11.98 69.11)">12</text>
	<text style="fill: #098dbf;" transform="matrix(1 0 0 1 23.68 60.95)">13</text>
	<text style="fill: #095cbf;" transform="matrix(1 0 0 1 25.57 70.10)">14</text>
	<text style="fill: #092abf;" transform="matrix(1 0 0 1 25.57 80.03)">15</text>
	<text style="fill: #1a09bf;" transform="matrix(1 0 0 1 65.49 32.61)">16</text>
	<text style="fill: #4b09bf;" transform="matrix(1 0 0 1 51.50 35.43)">17</text>
	<text style="fill: #7d09bf;" transform="matrix(1 0 0 1 64.62 52.30)">18</text>
	<text style="fill: #ae09bf;" transform="matrix(1 0 0 1 51.59 60.24)">19</text>
	<text style="fill: #bf099e;" transform="matrix(1 0 0 1 65.64 61.29)">20</text>
	<text style="fill: #bf096c;" transform="matrix(1 0 0 1 65.50 71.07)">21</text>
	<text style="fill: #bf093b;" transform="matrix(1 0 0 1 65.28 81.92)">22</text>
</g>
</svg>
